<?xml version="1.0" encoding="UTF-8"?>
<!DOCTYPE svg PUBLIC "-//W3C//DTD SVG 1.1//EN" "http://www.w3.org/Graphics/SVG/1.1/DTD/svg11.dtd">
<svg xmlns="http://www.w3.org/2000/svg" version="1.1" width="50px" height="50px" style="shape-rendering:geometricPrecision; text-rendering:geometricPrecision; image-rendering:optimizeQuality; fill-rule:evenodd; clip-rule:evenodd" xmlns:xlink="http://www.w3.org/1999/xlink">
<g><path style="opacity:1" fill="#fafafa" d="M 18.5,-0.5 C 26.8333,-0.5 35.1667,-0.5 43.5,-0.5C 37.6489,7.52135 31.9822,15.688 26.5,24C 31.589,32.9154 37.2557,41.4154 43.5,49.5C 34.8333,49.5 26.1667,49.5 17.5,49.5C 17.5,49.1667 17.5,48.8333 17.5,48.5C 20.0256,47.1242 21.6923,44.9576 22.5,42C 19.0843,35.8332 15.4177,29.8332 11.5,24C 15.0965,18.0666 19.0965,12.4 23.5,7C 21.5854,4.60039 19.9188,2.10039 18.5,-0.5 Z"/></g>
<g><path style="opacity:1" fill="#ececec" d="M 44.5,-0.5 C 46.1667,-0.5 47.8333,-0.5 49.5,-0.5C 49.5,1.83333 49.5,4.16667 49.5,6.5C 47.4776,4.46869 45.8109,2.13535 44.5,-0.5 Z"/></g>
<g><path style="opacity:1" fill="#0a0a0a" d="M 17.5,-0.5 C 17.8333,-0.5 18.1667,-0.5 18.5,-0.5C 19.9188,2.10039 21.5854,4.60039 23.5,7C 19.0965,12.4 15.0965,18.0666 11.5,24C 15.4177,29.8332 19.0843,35.8332 22.5,42C 21.6923,44.9576 20.0256,47.1242 17.5,48.5C 10.6838,41.0049 5.0171,32.6715 0.5,23.5C 5.67166,15.1595 11.3383,7.15949 17.5,-0.5 Z"/></g>
<g><path style="opacity:1" fill="#0a0a0a" d="M 43.5,-0.5 C 43.8333,-0.5 44.1667,-0.5 44.5,-0.5C 45.8109,2.13535 47.4776,4.46869 49.5,6.5C 49.5,7.16667 49.5,7.83333 49.5,8.5C 45.0341,13.4074 41.0341,18.7407 37.5,24.5C 40.8053,29.6383 44.3053,34.6383 48,39.5C 48.6037,43.4154 47.437,46.7488 44.5,49.5C 44.1667,49.5 43.8333,49.5 43.5,49.5C 37.2557,41.4154 31.589,32.9154 26.5,24C 31.9822,15.688 37.6489,7.52135 43.5,-0.5 Z"/></g>
<g><path style="opacity:1" fill="#f8f8f8" d="M 49.5,8.5 C 49.5,22.1667 49.5,35.8333 49.5,49.5C 47.8333,49.5 46.1667,49.5 44.5,49.5C 47.437,46.7488 48.6037,43.4154 48,39.5C 44.3053,34.6383 40.8053,29.6383 37.5,24.5C 41.0341,18.7407 45.0341,13.4074 49.5,8.5 Z"/></g>
<g><path style="opacity:1" fill="#fafafa" d="M -0.5,-0.5 C 5.5,-0.5 11.5,-0.5 17.5,-0.5C 11.3383,7.15949 5.67166,15.1595 0.5,23.5C 5.0171,32.6715 10.6838,41.0049 17.5,48.5C 17.5,48.8333 17.5,49.1667 17.5,49.5C 11.5,49.5 5.5,49.5 -0.5,49.5C -0.5,32.8333 -0.5,16.1667 -0.5,-0.5 Z"/></g>
</svg>
