<?xml version="1.0" standalone="no"?>
<!DOCTYPE svg PUBLIC "-//W3C//DTD SVG 20010904//EN"
 "http://www.w3.org/TR/2001/REC-SVG-20010904/DTD/svg10.dtd">
<svg version="1.0" xmlns="http://www.w3.org/2000/svg"
 width="40.000000pt" height="40.000000pt" viewBox="0 0 40.000000 40.000000"
 preserveAspectRatio="xMidYMid meet">
<metadata>
Created by potrace 1.16, written by Peter Selinger 2001-2019
</metadata>
<g transform="translate(0.000000,40.000000) scale(0.100000,-0.100000)"
fill="#000000" stroke="none">
<path d="M20 370 c-24 -33 -24 -32 37 -112 l43 -57 -51 -70 -51 -70 22 -31
c12 -16 23 -30 25 -30 3 0 124 163 139 188 5 8 -19 49 -64 112 -40 55 -73 100
-75 100 -2 0 -13 -13 -25 -30z"/>
<path d="M231 371 c-25 -34 -26 -31 36 -114 l42 -58 -50 -69 -51 -69 22 -31
c12 -16 23 -30 25 -30 3 0 123 162 139 188 6 10 -31 69 -127 196 -13 18 -15
17 -36 -13z"/>
</g>
</svg>
