<?xml version="1.0" standalone="no"?>
<!DOCTYPE svg PUBLIC "-//W3C//DTD SVG 20010904//EN"
 "http://www.w3.org/TR/2001/REC-SVG-20010904/DTD/svg10.dtd">
<svg version="1.0" xmlns="http://www.w3.org/2000/svg"
 width="32.000000pt" height="32.000000pt" viewBox="0 0 32.000000 32.000000"
 preserveAspectRatio="xMidYMid meet">
<metadata>
Created by potrace 1.16, written by Peter Selinger 2001-2019
</metadata>
<g transform="translate(0.000000,32.000000) scale(0.100000,-0.100000)"
fill="#000000" stroke="none">
<path d="M196 270 c-21 -28 -40 -50 -42 -50 -2 0 -13 19 -25 43 -12 23 -24 36
-26 29 -3 -6 -9 -10 -14 -6 -19 12 -19 -25 1 -76 l21 -53 -27 -40 c-24 -37
-29 -54 -25 -95 0 -7 5 -11 10 -8 5 4 11 1 13 -6 2 -6 17 10 32 37 l29 48 19
-36 c16 -32 21 -36 38 -27 37 20 41 44 15 83 -14 20 -25 41 -25 47 0 6 18 35
41 65 40 53 40 54 22 74 -19 21 -19 21 -57 -29z"/>
</g>
</svg>
