<?xml version="1.0" standalone="no"?>
<!DOCTYPE svg PUBLIC "-//W3C//DTD SVG 20010904//EN"
 "http://www.w3.org/TR/2001/REC-SVG-20010904/DTD/svg10.dtd">
<svg version="1.0" xmlns="http://www.w3.org/2000/svg"
 width="900.000000pt" height="900.000000pt" viewBox="0 0 900.000000 900.000000"
 preserveAspectRatio="xMidYMid meet">
<metadata>
Created by potrace 1.16, written by Peter Selinger 2001-2019
</metadata>
<g transform="translate(0.000000,900.000000) scale(0.100000,-0.100000)"
fill="#000000" stroke="none">
<path d="M1015 8745 c-361 -67 -648 -334 -747 -696 l-23 -84 0 -3465 0 -3465
23 -85 c93 -336 347 -591 682 -682 l85 -23 3465 0 3465 0 84 23 c336 92 593
348 683 682 l23 85 0 3465 0 3465 -23 85 c-90 332 -340 584 -677 682 l-80 23
-3445 2 c-2786 1 -3458 -1 -3515 -12z m6234 -2010 c209 -50 382 -225 437 -445
34 -136 5 -312 -73 -445 -28 -47 -459 -483 -1927 -1951 -1765 -1765 -1896
-1893 -1961 -1926 -107 -55 -175 -72 -290 -72 -115 0 -183 17 -290 72 -64 32
-138 103 -883 846 -863 861 -890 891 -933 1024 -29 93 -36 238 -15 322 68 272
304 460 578 460 104 0 167 -14 268 -62 l85 -39 594 -596 594 -595 1661 1660
c1636 1635 1662 1660 1738 1697 43 21 101 43 130 51 73 17 210 17 287 -1z"/>
</g>
</svg>
