<?xml version="1.0" standalone="no"?>
<!DOCTYPE svg PUBLIC "-//W3C//DTD SVG 20010904//EN"
 "http://www.w3.org/TR/2001/REC-SVG-20010904/DTD/svg10.dtd">
<svg version="1.0" xmlns="http://www.w3.org/2000/svg"
 width="900.000000pt" height="900.000000pt" viewBox="0 0 900.000000 900.000000"
 preserveAspectRatio="xMidYMid meet">
<metadata>
Created by potrace 1.16, written by Peter Selinger 2001-2019
</metadata>
<g transform="translate(0.000000,900.000000) scale(0.100000,-0.100000)"
fill="#000000" stroke="none">
<path d="M4353 8980 c-436 -62 -786 -369 -910 -800 l-28 -95 -5 -1250 -5
-1250 -1250 -5 -1250 -5 -95 -28 c-209 -60 -413 -189 -544 -343 -115 -134
-185 -271 -233 -453 -22 -82 -26 -118 -26 -251 -1 -137 2 -167 26 -265 97
-384 384 -677 778 -792 l94 -28 1252 -3 1253 -3 2 -1247 3 -1247 24 -84 c109
-392 386 -680 754 -785 460 -133 953 50 1214 450 87 134 152 312 169 459 4 39
8 605 8 1260 l1 1190 1250 5 c1240 5 1251 5 1325 27 409 116 692 397 797 788
24 90 27 117 27 270 0 153 -3 180 -27 270 -30 112 -94 253 -158 347 -64 94
-202 228 -302 293 -93 60 -213 113 -337 148 -74 22 -85 22 -1325 27 l-1250 5
-5 1250 c-6 1382 -1 1273 -71 1458 -154 403 -539 677 -974 692 -66 2 -148 0
-182 -5z m324 -375 c121 -28 279 -125 364 -224 64 -74 116 -164 147 -256 l27
-80 5 -1345 c4 -1020 8 -1351 17 -1370 17 -35 43 -65 78 -86 28 -18 81 -19
1375 -24 l1345 -5 100 -35 c122 -44 199 -92 290 -185 155 -158 228 -384 196
-605 -24 -161 -92 -293 -210 -410 -88 -87 -173 -139 -286 -178 l-80 -27 -1345
-5 c-1473 -5 -1370 -1 -1427 -62 -56 -59 -53 14 -53 -1401 l0 -1304 -24 -95
c-27 -108 -50 -157 -112 -244 -82 -117 -219 -219 -350 -263 -401 -133 -819 87
-940 494 -17 56 -19 152 -24 1405 l-5 1345 -23 37 c-13 20 -40 47 -60 60 l-37
23 -1345 5 -1345 5 -70 24 c-209 70 -356 194 -445 376 -55 111 -73 189 -74
315 0 134 15 203 69 315 92 190 228 311 430 382 l80 28 1350 5 1350 5 37 23
c20 13 47 40 60 60 l23 37 5 1345 5 1345 24 70 c95 282 311 471 586 515 74 11
208 4 292 -15z"/>
</g>
</svg>
