<?xml version="1.0" standalone="no"?>
<!DOCTYPE svg PUBLIC "-//W3C//DTD SVG 20010904//EN"
 "http://www.w3.org/TR/2001/REC-SVG-20010904/DTD/svg10.dtd">
<svg version="1.0" xmlns="http://www.w3.org/2000/svg"
 width="900.000000pt" height="900.000000pt" viewBox="0 0 900.000000 900.000000"
 preserveAspectRatio="xMidYMid meet">
<metadata>
Created by potrace 1.16, written by Peter Selinger 2001-2019
</metadata>
<g transform="translate(0.000000,900.000000) scale(0.100000,-0.100000)"
fill="#000000" stroke="none">
<path d="M6780 8975 c-317 -46 -583 -145 -833 -312 -666 -442 -1000 -1247
-842 -2029 180 -888 952 -1540 1860 -1571 107 -4 209 -1 275 6 352 41 682 171
970 384 124 91 327 297 412 417 284 401 417 892 367 1348 -47 429 -231 835
-516 1141 -290 311 -662 516 -1083 597 -168 32 -458 42 -610 19z m-146 -1070
c37 -8 88 -26 113 -41 69 -40 152 -130 213 -229 31 -50 62 -90 69 -90 8 0 35
38 60 85 79 145 191 238 332 275 79 22 214 19 291 -5 111 -34 217 -128 271
-240 27 -57 32 -78 35 -166 9 -210 -71 -395 -303 -701 -60 -80 -164 -216 -230
-303 -189 -250 -310 -456 -400 -682 -26 -65 -50 -118 -54 -118 -3 0 -17 28
-30 63 -91 236 -272 534 -552 909 -257 342 -381 554 -401 683 -14 90 -5 214
22 290 24 71 79 154 123 188 44 33 129 76 174 86 59 14 191 12 267 -4z"/>
<path d="M0 7095 l0 -285 613 0 612 0 57 -133 c32 -72 87 -199 123 -282 37
-82 86 -195 110 -250 24 -55 150 -343 280 -640 130 -297 281 -641 335 -765
113 -260 364 -833 451 -1030 32 -74 182 -416 333 -760 l273 -625 2347 -3 2346
-2 -2 277 -3 278 -2159 5 -2159 5 -99 225 c-54 124 -116 266 -137 315 -22 50
-99 225 -171 390 -73 165 -176 401 -230 525 -54 124 -283 648 -510 1165 -227
517 -431 985 -455 1040 -24 55 -115 264 -203 465 l-160 365 -796 3 -796 2 0
-285z"/>
<path d="M2820 6243 c0 -5 251 -635 557 -1401 l557 -1392 1974 2 1973 3 180
450 c212 531 424 1070 434 1104 10 32 2 29 -172 -75 -294 -176 -601 -288 -928
-339 -146 -23 -437 -30 -591 -16 -584 56 -1119 306 -1529 716 -251 250 -417
489 -556 800 l-67 150 -916 3 c-504 1 -916 -1 -916 -5z"/>
<path d="M4027 1730 c-155 -39 -301 -124 -408 -236 -155 -164 -228 -334 -236
-554 -8 -191 32 -332 138 -491 158 -235 423 -379 699 -379 372 0 706 258 812
626 33 113 33 315 0 428 -80 279 -286 493 -562 587 -85 29 -109 33 -230 36
-109 2 -150 -1 -213 -17z"/>
<path d="M6845 1730 c-207 -54 -366 -159 -483 -318 -312 -422 -182 -992 282
-1243 416 -224 936 -49 1146 386 148 305 88 681 -149 928 -122 129 -267 211
-441 252 -91 21 -266 19 -355 -5z"/>
</g>
</svg>
