<?xml version="1.0" standalone="no"?>
<!DOCTYPE svg PUBLIC "-//W3C//DTD SVG 20010904//EN"
 "http://www.w3.org/TR/2001/REC-SVG-20010904/DTD/svg10.dtd">
<svg version="1.0" xmlns="http://www.w3.org/2000/svg"
 width="840.000000pt" height="619.000000pt" viewBox="0 0 840.000000 619.000000"
 preserveAspectRatio="xMidYMid meet">
<metadata>
Created by potrace 1.16, written by Peter Selinger 2001-2019
</metadata>
<g transform="translate(0.000000,619.000000) scale(0.100000,-0.100000)"
fill="#000000" stroke="none">
<path d="M3163 5771 c-7 -11 -25 -22 -40 -25 -26 -6 -45 -26 -114 -118 -15
-20 -19 -21 -75 -10 -32 7 -88 11 -124 10 -62 -3 -65 -4 -73 -33 -19 -61 -15
-60 -148 -63 -119 -3 -125 -4 -152 -30 -16 -15 -34 -49 -43 -80 -9 -29 -21
-55 -27 -57 -7 -2 -40 -6 -75 -9 -70 -5 -87 -15 -96 -51 -4 -14 -12 -25 -19
-25 -6 -1 -127 -2 -268 -3 -237 -2 -259 -3 -278 -21 -12 -11 -21 -31 -21 -47
0 -52 -21 -124 -43 -152 -16 -20 -37 -30 -82 -39 -83 -16 -140 -58 -176 -130
-19 -37 -29 -73 -29 -101 0 -25 -6 -49 -12 -55 -7 -5 -76 -12 -154 -14 -106
-2 -146 -7 -165 -19 -13 -9 -40 -21 -59 -28 -50 -17 -94 -58 -124 -118 -32
-65 -52 -77 -92 -56 -21 11 -63 15 -154 16 -118 2 -128 0 -180 -25 -73 -36
-88 -61 -102 -160 -6 -46 -18 -90 -25 -99 -19 -22 -18 -185 2 -222 8 -15 19
-56 26 -90 7 -38 24 -82 45 -114 28 -43 41 -54 76 -63 24 -6 57 -15 73 -20 21
-7 45 -5 77 5 53 16 135 8 164 -16 23 -19 54 -88 54 -121 0 -42 47 -88 100
-99 25 -4 116 -8 203 -9 154 0 158 -1 166 -22 5 -13 11 -281 13 -596 l5 -574
-22 -8 c-12 -5 -60 -11 -106 -15 -46 -4 -95 -10 -109 -15 -14 -5 -55 -12 -92
-15 -44 -4 -74 -13 -89 -26 -12 -10 -28 -19 -35 -19 -21 0 -60 -69 -68 -120
-4 -25 -11 -63 -14 -85 l-7 -40 -155 -5 c-198 -6 -205 -11 -260 -158 -8 -20
-21 -34 -36 -38 l-24 -6 0 -237 0 -236 43 -17 c36 -14 70 -16 229 -13 239 5
233 9 233 -130 0 -84 3 -98 19 -111 16 -11 82 -14 360 -14 197 0 347 -4 356
-10 13 -8 16 -61 20 -347 l5 -338 1530 0 1530 0 5 335 c3 184 7 336 8 338 1 1
385 2 853 2 567 0 857 3 870 10 18 10 19 25 19 358 0 257 3 351 12 360 7 7 38
12 69 12 67 0 74 7 90 81 18 84 38 105 105 112 31 3 77 12 103 21 112 35 139
37 790 36 629 0 647 1 676 20 17 11 37 20 46 20 9 0 20 7 23 16 3 9 6 364 6
789 l0 774 -24 23 c-18 18 -25 38 -30 86 -8 82 -17 98 -63 107 -52 9 -63 21
-63 65 0 63 -18 102 -81 178 -8 10 -25 12 -53 8 -22 -3 -57 -2 -76 2 -32 7
-35 12 -40 47 -4 33 -11 43 -37 56 -48 24 -61 37 -68 70 -10 43 -42 69 -86 69
-27 0 -42 6 -53 21 -8 12 -32 31 -53 43 -40 23 -50 45 -52 113 -1 53 -27 73
-92 73 -49 0 -59 9 -59 55 0 13 -13 37 -29 53 -16 16 -34 47 -40 69 -15 54
-33 67 -94 66 -61 -1 -77 9 -77 47 0 40 -22 53 -72 46 -24 -3 -48 -3 -54 2 -6
4 -14 32 -17 64 -9 78 -15 88 -47 88 -33 0 -60 23 -60 52 0 11 -15 37 -33 59
-19 21 -39 57 -46 79 -14 46 -35 60 -105 69 -50 6 -51 7 -66 51 -20 61 -25 66
-59 73 -23 5 -31 14 -42 49 l-14 43 -65 0 c-48 0 -74 5 -95 19 -23 15 -45 19
-101 18 -93 -3 -120 8 -129 50 -11 49 -22 58 -79 58 -63 0 -94 15 -124 60 -12
19 -36 41 -53 48 -16 7 -32 19 -35 27 -5 13 -164 15 -1283 15 -1245 0 -1276 0
-1288 -19z m2552 -283 c4 -3 7 -57 8 -120 l2 -113 245 -6 c135 -3 246 -6 248
-7 1 -1 2 -54 2 -117 0 -134 -12 -124 145 -128 l100 -2 3 -112 c2 -75 7 -115
15 -122 7 -6 62 -12 123 -13 l109 -3 5 -110 c3 -60 9 -116 13 -122 6 -9 41
-13 117 -13 89 0 109 -3 114 -16 3 -9 6 -57 7 -107 1 -137 -5 -131 130 -132
l114 0 5 -117 c3 -64 8 -120 13 -124 4 -4 58 -8 120 -8 l112 -1 5 -117 c3 -64
8 -120 12 -124 4 -4 58 -7 120 -8 l113 -1 5 -120 5 -120 120 -5 120 -5 0 -110
c0 -108 0 -109 -25 -116 -42 -12 -919 -10 -941 1 -18 10 -19 24 -19 240 0 216
-1 230 -19 240 -32 16 -206 13 -221 -5 -9 -11 -12 -76 -11 -246 0 -128 3 -234
6 -237 2 -3 54 -6 114 -7 60 -2 113 -5 118 -8 4 -3 7 -57 6 -121 -1 -64 -1
-117 0 -118 1 -1 225 -5 497 -8 l495 -5 3 -354 c2 -252 -1 -358 -9 -367 -9
-12 -136 -14 -742 -13 -597 0 -731 -2 -738 -13 -5 -7 -8 -58 -7 -114 1 -55 -2
-106 -6 -112 -6 -10 -200 -12 -863 -11 -721 2 -856 0 -864 -12 -5 -8 -8 -66
-7 -129 l3 -115 618 -3 617 -2 0 -240 0 -240 -37 -1 c-21 -1 -576 -2 -1233 -3
-657 0 -1203 -5 -1212 -10 -15 -7 -18 -23 -18 -101 0 -52 4 -105 10 -119 l10
-26 344 0 c200 0 355 -4 370 -10 l26 -10 0 -218 c0 -168 -3 -222 -14 -237 -13
-18 -56 -18 -1237 -17 -1141 2 -1225 3 -1236 19 -17 22 -18 194 -1 211 9 9 74
12 231 12 131 0 226 4 238 10 17 10 19 22 19 115 0 93 2 105 19 115 12 6 105
10 233 10 156 0 219 3 231 12 13 11 17 34 18 123 l2 110 -59 6 c-33 3 -420 5
-862 4 -442 0 -808 3 -814 6 -7 5 -12 49 -12 117 -1 61 -4 114 -9 118 -4 4
-113 8 -243 8 -165 1 -237 4 -242 12 -4 7 -6 60 -4 119 l3 106 240 -3 c205 -3
240 -1 245 12 4 8 9 66 13 129 l6 114 238 -2 237 -2 6 28 c3 15 6 409 7 875 2
698 0 849 -11 853 -8 3 -119 5 -248 5 -180 0 -234 3 -235 13 0 6 0 46 0 87 1
41 -3 91 -7 110 l-8 35 -239 5 -240 5 0 115 0 115 234 2 c158 1 237 5 245 13
6 6 13 60 16 127 l5 116 232 -2 232 -2 17 26 c14 21 16 41 11 111 -3 47 -4 91
0 99 4 12 28 15 112 15 58 0 113 5 121 10 12 7 15 33 15 122 l0 113 364 3
c265 2 368 6 379 14 11 10 13 35 11 123 l-4 110 244 2 c191 1 246 4 252 15 5
7 9 59 8 115 -1 56 2 106 6 112 7 13 2708 11 2720 -1z"/>
<path d="M3991 4496 c-16 -19 -16 -464 0 -483 8 -9 42 -13 119 -13 l107 0 7
-46 c3 -26 6 -133 6 -239 0 -153 3 -195 14 -204 9 -8 51 -11 122 -9 l109 3 3
244 c1 164 -1 247 -8 251 -6 4 -59 8 -117 9 -59 1 -110 4 -115 7 -4 3 -8 110
-8 238 0 167 -3 235 -12 244 -18 18 -212 16 -227 -2z"/>
<path d="M2740 4241 c-5 -11 -10 -67 -10 -125 0 -106 0 -106 -26 -112 -15 -4
-64 -4 -109 0 -69 5 -86 3 -99 -10 -14 -14 -16 -58 -14 -372 l3 -357 111 -6
c61 -3 116 -9 122 -13 8 -5 12 -45 12 -122 0 -131 -15 -117 125 -114 125 2
113 -23 117 239 2 175 6 232 17 244 11 14 33 17 111 17 66 0 101 4 108 13 13
15 25 400 14 447 l-8 35 -100 1 c-56 0 -108 4 -117 7 -14 5 -17 23 -17 111 0
57 -3 111 -6 120 -5 13 -25 16 -115 16 -97 0 -109 -2 -119 -19z m223 -243 c15
-7 17 -24 17 -118 0 -72 -4 -111 -12 -116 -17 -11 -218 -8 -229 3 -5 5 -8 59
-7 118 3 107 3 109 28 115 39 10 183 9 203 -2z"/>
<path d="M4986 4244 c-3 -9 -6 -121 -6 -249 0 -272 -14 -247 133 -243 52 2 99
0 103 -4 4 -5 6 -113 5 -242 -2 -169 1 -236 9 -241 7 -4 55 -7 108 -7 151 1
136 44 138 -377 1 -199 4 -364 6 -367 3 -2 51 -5 108 -7 89 -3 106 -1 122 15
17 17 18 44 18 372 0 313 -2 355 -16 360 -9 3 -60 6 -114 6 -66 0 -101 4 -108
13 -7 7 -12 100 -14 240 -2 189 -6 229 -18 237 -8 5 -61 10 -118 10 -73 0
-104 4 -107 13 -3 6 -6 113 -8 237 -1 124 -6 231 -10 238 -6 8 -41 12 -117 12
-89 0 -109 -3 -114 -16z"/>
<path d="M3535 3753 c-70 -14 -64 -1 -59 -124 2 -62 6 -114 8 -117 3 -2 56 -6
118 -9 71 -3 116 -9 120 -16 4 -7 7 -115 5 -242 l-2 -230 -122 -5 c-67 -3
-123 -7 -126 -10 -3 -3 -2 -57 2 -120 l6 -115 112 -5 c62 -3 117 -10 123 -16
7 -7 9 -90 8 -248 l-3 -239 -105 2 c-58 1 -113 -1 -123 -5 -15 -5 -17 -22 -17
-119 0 -63 4 -116 9 -119 4 -3 55 -6 111 -7 130 -2 130 -2 130 132 0 67 4 100
13 106 6 4 57 8 111 9 84 1 101 4 113 19 10 15 13 72 13 252 l0 233 113 0 c61
0 118 4 125 8 9 6 12 38 10 123 l-3 114 -122 3 -123 3 0 244 c0 135 -1 246 -2
246 -2 1 -57 4 -123 8 l-120 6 -3 110 c-2 89 -6 112 -19 123 -16 11 -132 15
-178 5z m422 -767 c12 -12 18 -76 15 -163 l-2 -51 -41 -7 c-22 -4 -76 -4 -120
0 l-79 7 0 109 c0 90 3 110 16 117 22 12 196 3 211 -12z"/>
<path d="M4484 3498 c-10 -16 -4 -472 7 -483 5 -5 57 -9 117 -9 69 1 110 -3
114 -10 4 -6 8 -115 8 -243 0 -174 3 -234 13 -240 6 -4 55 -6 108 -4 128 3
129 2 127 -130 -1 -58 3 -104 9 -110 7 -7 95 -11 239 -11 210 0 229 1 241 18
13 18 14 47 3 234 0 3 -109 5 -242 5 l-243 0 -5 245 -5 245 -122 3 -123 3 0
244 0 243 -27 6 c-40 9 -213 4 -219 -6z"/>
<path d="M2742 2498 c-8 -8 -12 -48 -12 -119 0 -71 -4 -110 -12 -115 -6 -4
-58 -6 -114 -5 -95 2 -104 0 -114 -19 -8 -14 -10 -128 -8 -371 3 -298 5 -351
18 -359 20 -13 197 -5 214 9 10 9 12 33 9 99 -3 50 0 99 6 115 l11 27 108 0
c71 0 112 -4 120 -12 8 -8 12 -49 12 -119 0 -74 4 -109 13 -116 14 -10 171
-10 205 1 l22 7 0 364 0 365 -22 5 c-13 3 -66 6 -118 8 l-95 2 -5 120 -5 120
-110 3 c-77 2 -114 -1 -123 -10z m236 -353 c1 -60 -2 -117 -7 -125 -8 -12 -31
-14 -118 -12 -59 2 -111 7 -115 10 -9 9 -12 217 -3 231 4 8 45 11 123 9 l117
-3 3 -110z"/>
</g>
</svg>
