<?xml version="1.0" standalone="no"?>
<!DOCTYPE svg PUBLIC "-//W3C//DTD SVG 20010904//EN"
 "http://www.w3.org/TR/2001/REC-SVG-20010904/DTD/svg10.dtd">
<svg version="1.0" xmlns="http://www.w3.org/2000/svg"
 width="420.000000pt" height="298.000000pt" viewBox="0 0 420.000000 298.000000"
 preserveAspectRatio="xMidYMid meet">
<metadata>
Created by potrace 1.16, written by Peter Selinger 2001-2019
</metadata>
<g transform="translate(0.000000,298.000000) scale(0.100000,-0.100000)"
fill="#000000" stroke="none">
<path d="M1440 2560 l0 -50 -100 0 -100 0 0 -50 0 -50 -150 0 -150 0 0 -50 0
-50 -50 0 -50 0 0 -50 0 -50 -100 0 -100 0 0 -50 0 -50 -100 0 -100 0 0 -195
0 -195 35 0 c33 0 35 -2 35 -34 0 -40 11 -46 81 -46 27 0 49 -4 49 -10 0 -5
16 -10 35 -10 33 0 35 -2 35 -34 0 -40 11 -46 81 -46 l49 0 0 -165 0 -165
-100 0 -100 0 0 -50 0 -50 -100 0 -100 0 0 -195 0 -195 35 0 c33 0 35 -2 35
-34 0 -40 11 -46 81 -46 27 0 49 -4 49 -10 0 -5 16 -10 35 -10 33 0 35 -2 35
-34 0 -43 8 -46 131 -46 l99 0 0 -110 0 -110 35 0 c33 0 35 -2 35 -34 0 -22 6
-36 16 -40 9 -3 294 -6 634 -6 549 0 620 2 634 16 13 12 16 41 16 150 l0 134
334 0 c291 0 337 2 350 16 13 12 16 41 16 150 l0 134 84 0 c97 0 116 11 116
66 l0 34 284 0 c245 0 287 2 300 16 14 13 16 62 16 384 0 203 -3 375 -6 384
-4 10 -18 16 -40 16 -31 0 -34 3 -34 30 0 38 -32 70 -70 70 -27 0 -30 3 -30
30 0 38 -32 70 -70 70 -27 0 -30 3 -30 30 0 38 -32 70 -70 70 -27 0 -30 3 -30
30 0 38 -32 70 -70 70 -27 0 -30 3 -30 30 0 38 -32 70 -70 70 -27 0 -30 3 -30
30 0 17 -9 39 -20 50 -11 11 -33 20 -50 20 -27 0 -30 3 -30 30 0 17 -9 39 -20
50 -11 11 -33 20 -50 20 -28 0 -30 3 -30 35 l0 35 -60 0 c-45 0 -62 4 -66 15
-4 9 -19 15 -40 15 -32 0 -34 2 -34 35 l0 35 -695 0 -695 0 0 -50z m1240 -140
l0 -50 100 0 100 0 0 -50 0 -50 50 0 50 0 0 -50 0 -50 50 0 50 0 0 -50 0 -50
50 0 50 0 0 -50 0 -50 50 0 50 0 0 -50 0 -50 50 0 50 0 0 -50 0 -50 50 0 50 0
0 -50 0 -50 50 0 50 0 0 -50 0 -50 -200 0 -200 0 0 -50 0 -50 200 0 200 0 0
-150 0 -150 -300 0 -300 0 0 -50 0 -50 -350 0 -350 0 0 -50 0 -50 250 0 250 0
0 -100 0 -100 -500 0 -500 0 0 -50 0 -50 150 0 150 0 0 -100 0 -100 -500 0
-500 0 0 50 0 50 100 0 100 0 0 50 0 50 100 0 100 0 0 50 0 50 -350 0 -350 0
0 50 0 50 -100 0 -100 0 0 50 0 50 100 0 100 0 0 50 0 50 100 0 100 0 0 350 0
350 -100 0 -100 0 0 50 0 50 -100 0 -100 0 0 50 0 50 100 0 100 0 0 50 0 50
100 0 100 0 0 50 0 50 50 0 50 0 0 50 0 50 150 0 150 0 0 50 0 50 100 0 100 0
0 50 0 50 550 0 550 0 0 -50z"/>
<path d="M1980 1970 l0 -100 50 0 50 0 0 -100 0 -100 50 0 50 0 0 -100 0 -100
50 0 50 0 0 -100 0 -100 50 0 50 0 0 -50 0 -50 100 0 100 0 0 50 0 50 50 0 50
0 0 150 0 150 -50 0 -50 0 0 100 0 100 -50 0 -50 0 0 100 0 100 -50 0 -50 0 0
-100 0 -100 50 0 50 0 0 -100 0 -100 50 0 50 0 0 -150 0 -150 -100 0 -100 0 0
100 0 100 -50 0 -50 0 0 100 0 100 -50 0 -50 0 0 100 0 100 -50 0 -50 0 0 100
0 100 -50 0 -50 0 0 -100z"/>
<path d="M1480 1920 l0 -50 -50 0 -50 0 0 -150 0 -150 50 0 50 0 0 -50 0 -50
50 0 50 0 0 100 0 100 50 0 50 0 0 100 0 100 -50 0 -50 0 0 50 0 50 -50 0 -50
0 0 -50z"/>
<path d="M1780 1720 l0 -50 50 0 50 0 0 -100 0 -100 -50 0 -50 0 0 -50 0 -50
50 0 50 0 0 -100 0 -100 -50 0 -50 0 0 -50 0 -50 50 0 50 0 0 50 0 50 50 0 50
0 0 100 0 100 50 0 50 0 0 50 0 50 -50 0 -50 0 0 100 0 100 -50 0 -50 0 0 50
0 50 -50 0 -50 0 0 -50z"/>
<path d="M3080 1670 l0 -100 50 0 50 0 0 100 0 100 -50 0 -50 0 0 -100z"/>
<path d="M1480 1220 l0 -50 -50 0 -50 0 0 -150 0 -150 50 0 50 0 0 50 0 50 50
0 50 0 0 -50 0 -50 50 0 50 0 0 150 0 150 -50 0 -50 0 0 50 0 50 -50 0 -50 0
0 -50z"/>
</g>
</svg>
