<?xml version="1.0" standalone="no"?>
<!DOCTYPE svg PUBLIC "-//W3C//DTD SVG 20010904//EN"
 "http://www.w3.org/TR/2001/REC-SVG-20010904/DTD/svg10.dtd">
<svg version="1.0" xmlns="http://www.w3.org/2000/svg"
 width="260.000000pt" height="260.000000pt" viewBox="0 0 260.000000 260.000000"
 preserveAspectRatio="xMidYMid meet">
<metadata>
Created by potrace 1.16, written by Peter Selinger 2001-2019
</metadata>
<g transform="translate(0.000000,260.000000) scale(0.100000,-0.100000)"
fill="#000000" stroke="none">
<path d="M940 2020 l0 -30 -70 0 -70 0 0 -35 0 -34 -107 -3 -108 -3 -3 -37
c-3 -36 -5 -38 -38 -38 -32 0 -34 -2 -34 -35 l0 -35 -70 0 -70 0 0 -40 0 -40
-75 0 -75 0 0 -30 c0 -28 -3 -30 -35 -30 -34 0 -35 -1 -35 -40 0 -22 3 -39 8
-39 4 1 19 1 35 0 24 -1 27 -5 27 -36 l0 -35 75 0 75 0 0 -35 c0 -33 2 -35 35
-35 l35 0 0 -180 0 -180 -35 0 c-34 0 -35 -1 -35 -40 l0 -40 -75 0 -75 0 0
-30 c0 -28 -3 -30 -35 -30 -34 0 -35 -1 -35 -40 0 -39 1 -40 35 -40 33 0 35
-2 35 -35 l0 -35 75 0 75 0 0 -35 0 -35 250 0 250 0 0 35 0 35 -249 0 -250 0
-3 38 -3 37 -72 3 -73 3 0 29 0 29 73 3 72 3 3 33 3 32 70 0 69 0 0 255 0 255
-70 0 -70 0 0 40 0 40 -76 0 -75 0 3 33 c3 32 4 32 58 34 30 1 63 2 73 2 12 1
17 9 17 31 l0 30 70 0 70 0 0 40 c0 39 1 40 35 40 33 0 35 2 35 35 l0 35 110
0 110 0 0 35 0 35 69 0 70 0 3 38 3 37 393 3 392 2 0 -34 0 -34 75 -7 75 -7 0
-34 c0 -32 2 -34 35 -34 33 0 35 -2 35 -35 0 -34 1 -35 40 -35 l40 0 0 -40 c0
-38 2 -40 30 -40 27 0 30 -3 30 -30 0 -28 2 -30 39 -30 39 0 40 -1 43 -37 3
-35 6 -38 36 -41 29 -3 32 -6 32 -38 0 -32 2 -34 35 -34 33 0 35 -2 35 -35 0
-34 1 -35 40 -35 l40 0 0 -40 0 -40 -145 0 -145 0 0 75 0 75 -35 0 -35 0 0
-75 0 -75 30 0 c29 0 37 -14 31 -52 0 -5 39 -8 88 -8 48 0 116 -3 150 -6 l61
-7 0 -103 0 -104 -220 0 -220 0 0 -40 0 -40 -251 0 -250 0 3 -32 3 -33 175 -2
175 -2 3 -70 3 -71 -361 0 -360 0 0 -35 0 -35 360 0 360 0 0 35 c0 33 2 35 35
35 l34 0 3 73 3 72 30 0 c27 0 30 4 33 33 l3 32 220 0 219 0 0 40 c0 39 1 40
35 40 l35 0 -2 178 -3 177 -32 3 c-30 3 -33 6 -33 37 0 32 -2 34 -37 37 -35 3
-38 6 -41 36 -2 23 -8 32 -22 32 -37 0 -50 12 -50 46 0 32 -2 34 -35 34 -32 0
-35 2 -35 30 0 28 -3 30 -35 30 -26 0 -35 4 -36 18 -4 57 -4 57 -36 60 -30 3
-33 6 -33 38 0 33 -1 34 -39 34 -39 0 -40 1 -43 38 -3 34 -6 37 -35 40 -30 3
-33 6 -33 38 l0 34 -70 0 -70 0 0 30 0 30 -400 0 -400 0 0 -30z"/>
<path d="M1230 1620 l0 -70 35 0 35 0 0 -70 0 -70 35 0 34 0 3 -72 3 -73 38
-3 37 -3 0 -70 0 -69 35 0 c33 0 35 -2 35 -35 l0 -35 70 0 c55 0 70 3 71 15 1
8 3 20 4 25 1 6 3 15 4 20 0 6 17 10 36 10 l35 0 0 104 0 105 -37 3 c-38 3
-38 4 -39 48 -4 108 -1 100 -39 100 l-35 0 0 76 0 75 -32 -3 -33 -3 -3 -72 -3
-73 36 0 35 0 0 -75 0 -75 35 0 35 0 0 -105 0 -105 -70 0 -70 0 0 75 0 75 -35
0 -35 0 0 70 0 70 -41 0 -40 0 2 73 2 72 -36 3 -37 3 0 65 0 64 -35 0 -35 0 0
-70z"/>
<path d="M870 1596 c0 -32 -3 -35 -32 -38 l-33 -3 -3 -112 -3 -113 36 0 c32 0
35 -2 35 -30 0 -28 3 -30 35 -30 l34 0 3 68 3 67 39 3 39 3 -7 52 c-3 29 -6
62 -6 75 0 19 -5 22 -35 22 -34 0 -35 -1 -35 -40 0 -39 -1 -40 -35 -40 -34 0
-35 1 -35 41 0 36 3 40 23 39 42 -4 47 0 47 35 0 33 -2 35 -35 35 -33 0 -35
-2 -35 -34z"/>
<path d="M1090 1445 c0 -33 2 -35 35 -35 l35 0 0 -70 0 -70 -35 0 c-34 0 -35
-1 -35 -40 0 -39 1 -40 35 -40 l35 0 0 -70 0 -70 -35 0 c-34 0 -35 -1 -35 -40
0 -39 1 -40 35 -40 34 0 35 1 35 40 0 39 1 40 35 40 l35 0 0 70 0 70 35 0 c34
0 35 1 35 40 0 39 -1 40 -35 40 l-35 0 0 70 0 70 -35 0 c-33 0 -35 2 -35 35 0
33 -2 35 -35 35 -33 0 -35 -2 -35 -35z"/>
<path d="M870 1085 c0 -33 -2 -35 -35 -35 l-35 0 0 -111 0 -110 33 3 c28 3 32
7 35 36 3 29 6 32 38 32 32 0 34 -2 34 -36 0 -35 1 -35 38 -32 l37 3 0 105 0
105 -37 3 c-36 3 -38 5 -38 38 0 32 -2 34 -35 34 -33 0 -35 -2 -35 -35z"/>
</g>
</svg>
