<?xml version="1.0" standalone="no"?>
<!DOCTYPE svg PUBLIC "-//W3C//DTD SVG 20010904//EN"
 "http://www.w3.org/TR/2001/REC-SVG-20010904/DTD/svg10.dtd">
<svg version="1.0" xmlns="http://www.w3.org/2000/svg"
 width="920.000000pt" height="540.000000pt" viewBox="0 0 920.000000 540.000000"
 preserveAspectRatio="xMidYMid meet">
<metadata>
Created by potrace 1.16, written by Peter Selinger 2001-2019
</metadata>
<g transform="translate(0.000000,540.000000) scale(0.100000,-0.100000)"
fill="#000000" stroke="none">
<path d="M3634 4846 c-58 -25 -116 -89 -210 -231 -51 -77 -101 -148 -111 -157
-17 -15 -73 -17 -588 -20 l-570 -3 -62 -29 c-72 -33 -134 -94 -166 -164 l-22
-47 0 -1525 0 -1525 26 -55 c32 -66 86 -123 154 -158 l50 -27 2440 0 2440 0
57 28 c72 35 141 110 165 180 17 49 18 127 18 1562 l0 1510 -33 67 c-37 76
-82 120 -162 157 l-55 26 -577 3 -578 3 -97 146 c-108 161 -160 221 -221 252
-41 21 -49 21 -954 21 -750 -1 -919 -3 -944 -14z m1832 -228 c17 -18 61 -80
99 -138 89 -138 137 -195 194 -228 l46 -27 585 -5 c322 -3 593 -9 603 -14 49
-24 47 40 47 -1544 0 -1475 0 -1479 -20 -1505 -12 -15 -38 -31 -58 -37 -25 -7
-808 -10 -2390 -10 -2529 0 -2390 -3 -2437 50 -20 22 -20 38 -23 1469 -2 795
0 1465 3 1489 4 23 17 55 30 70 l23 27 594 5 c668 6 616 -1 702 87 26 26 67
78 92 115 24 37 65 100 90 138 25 39 53 74 62 80 11 6 340 10 873 10 l855 0
30 -32z"/>
<path d="M4415 4214 c-344 -52 -612 -188 -840 -425 -197 -205 -325 -460 -371
-737 -20 -127 -15 -395 11 -509 109 -491 453 -876 920 -1032 154 -51 276 -71
446 -71 161 0 283 19 428 66 204 67 370 167 529 318 210 201 345 443 408 736
27 122 26 409 0 535 -59 281 -185 515 -386 715 -197 197 -422 321 -695 381
-88 20 -375 34 -450 23z m280 -214 c513 -54 928 -424 1033 -922 57 -265 26
-518 -92 -763 -354 -733 -1329 -892 -1898 -309 -211 216 -321 471 -335 779
-14 313 102 621 319 851 214 226 525 365 838 373 25 0 86 -4 135 -9z"/>
<path d="M4391 3775 c-240 -54 -441 -180 -579 -363 -291 -387 -256 -917 83
-1258 90 -91 174 -151 279 -200 331 -152 720 -105 1003 121 159 127 270 293
329 492 35 120 44 309 19 438 -35 186 -119 348 -253 487 -128 133 -269 218
-443 268 -98 29 -342 37 -438 15z m389 -225 c129 -37 224 -93 326 -195 77 -76
98 -105 137 -185 26 -52 54 -122 62 -154 92 -367 -105 -751 -455 -885 -476
-183 -990 148 -1017 654 -21 384 233 708 612 781 92 18 239 11 335 -16z"/>
<path d="M2659 3872 c-76 -39 -114 -103 -114 -186 1 -67 16 -105 61 -150 54
-53 79 -61 204 -61 108 0 118 2 162 28 58 33 96 95 105 166 5 42 1 59 -21 106
-47 95 -107 125 -251 125 -82 0 -99 -3 -146 -28z"/>
</g>
</svg>
