<svg width="36" height="36" viewBox="0 0 36 36" fill="none" xmlns="http://www.w3.org/2000/svg">
<path d="M15.3614 33.2498C14.1638 30.2991 13.0841 27.8916 11.1712 25.7473C9.05266 23.3725 7.39177 20.0464 5.43869 17.3488C3.37429 14.4975 1.90282 10.0476 2.00501 5.94932C2.12931 0.964226 7.75282 2.11475 9.86173 2.11475C11.3406 2.11475 13.3635 2.38471 14.3284 4.19875C14.8886 5.25182 15.6072 6.10851 16.1326 7.19972C16.4805 7.92245 16.759 9.31215 17.3256 9.76304C17.7072 10.0667 19.6327 7.01203 20.1337 6.69956C22.3451 5.32014 25.3605 5.64242 27.6703 6.24108C29.9555 6.83337 32.2515 8.92024 33.1554 12.0763C33.9489 14.8467 34.7204 18.8817 32.7917 20.8708C28.5962 25.1976 23.0212 24.9037 18.5041 27.9981C17.3296 28.8026 16.5812 29.3326 16.2053 31.0824C15.9942 32.065 15.7623 33.1388 15.3614 34" stroke="#FF0000" stroke-width="2.95" stroke-linecap="round"/>
</svg>
