<svg width="58" height="70" viewBox="0 0 58 70" fill="none" xmlns="http://www.w3.org/2000/svg">
<path d="M31.6779 35.759C28.4096 35.301 22.4675 33.5957 22.1132 37.5523C22.0389 38.3818 21.0505 38.5127 21.0505 39.7676C21.0505 40.7813 20.9192 41.8743 21.08 42.8795C21.3177 44.366 22.1206 47.0232 23.7073 47.732C25.0526 48.3329 26.6525 50 28.224 50C32.0039 50 35.7605 47.9572 35.9288 44.1981C36.1066 40.2281 36.3558 36.7084 31.1465 36.7084" stroke="black" stroke-opacity="0.44" stroke-width="3" stroke-linecap="round"/>
<path d="M34 48C35.8212 50.0014 38.2403 51.6472 39.2941 53.9091C39.9264 55.2662 41.8399 57.004 43 58" stroke="black" stroke-opacity="0.44" stroke-width="3" stroke-linecap="round"/>
<path d="M33 42L32 39" stroke="#8F8F8F" stroke-width="3" stroke-linecap="round"/>
<path d="M31 39H27" stroke="#8F8F8F" stroke-width="3" stroke-linecap="round"/>
<path d="M40 54C41.2587 54.0284 43.116 53.9351 43.7488 55.2222C44.4656 56.6802 43.5531 57 42.2124 57" stroke="#8F8F8F" stroke-width="3" stroke-linecap="round"/>
</svg>
