<?xml version="1.0" standalone="no"?>
<!DOCTYPE svg PUBLIC "-//W3C//DTD SVG 20010904//EN"
 "http://www.w3.org/TR/2001/REC-SVG-20010904/DTD/svg10.dtd">
<svg version="1.0" xmlns="http://www.w3.org/2000/svg"
 width="900.000000pt" height="797.000000pt" viewBox="0 0 900.000000 797.000000"
 preserveAspectRatio="xMidYMid meet">
<metadata>
Created by potrace 1.16, written by Peter Selinger 2001-2019
</metadata>
<g transform="translate(0.000000,797.000000) scale(0.100000,-0.100000)"
fill="#000000" stroke="none">
<path d="M3682 7959 c-341 -29 -728 -158 -1020 -341 -171 -107 -256 -173 -395
-308 -348 -336 -569 -739 -666 -1216 -189 -926 203 -1879 989 -2399 147 -98
218 -136 371 -203 207 -90 460 -156 691 -181 267 -29 614 1 863 75 145 42 157
46 159 42 2 -2 90 -172 196 -378 106 -206 212 -411 235 -455 23 -44 82 -156
130 -250 48 -93 114 -219 145 -280 32 -60 92 -177 135 -260 220 -426 342 -661
440 -850 34 -66 106 -205 160 -310 54 -104 117 -226 140 -270 23 -44 69 -131
100 -193 68 -133 96 -157 199 -175 264 -45 708 192 851 455 34 64 40 81 40
138 0 72 7 57 -159 314 -40 61 -91 140 -114 176 -447 697 -548 855 -582 910
-23 36 -62 98 -88 138 -26 39 -132 206 -236 370 -105 163 -224 349 -265 414
-105 162 -232 358 -428 666 l-168 264 89 86 c405 395 639 857 712 1412 22 169
14 516 -15 670 -46 247 -100 416 -195 614 -143 299 -335 552 -578 761 -346
298 -749 481 -1212 550 -126 18 -386 25 -524 14z m513 -364 c229 -42 405 -99
588 -192 192 -98 326 -194 481 -343 322 -312 524 -703 591 -1146 20 -131 20
-428 0 -559 -72 -478 -309 -912 -665 -1218 -91 -78 -297 -227 -314 -227 -3 0
-27 -13 -53 -28 -131 -76 -362 -159 -558 -199 -120 -25 -148 -27 -375 -27
-229 0 -254 2 -379 28 -418 86 -773 280 -1054 576 -288 303 -455 639 -533
1070 -24 132 -24 467 -1 600 93 519 332 933 718 1247 297 241 677 396 1074
437 85 9 393 -4 480 -19z"/>
</g>
</svg>
