<?xml version="1.0" standalone="no"?>
<!DOCTYPE svg PUBLIC "-//W3C//DTD SVG 20010904//EN"
 "http://www.w3.org/TR/2001/REC-SVG-20010904/DTD/svg10.dtd">
<svg version="1.0" xmlns="http://www.w3.org/2000/svg"
 width="900.000000pt" height="900.000000pt" viewBox="0 0 900.000000 900.000000"
 preserveAspectRatio="xMidYMid meet">
<metadata>
Created by potrace 1.16, written by Peter Selinger 2001-2019
</metadata>
<g transform="translate(0.000000,900.000000) scale(0.100000,-0.100000)"
fill="#000000" stroke="none">
<path d="M4200 8989 c-1120 -82 -2129 -547 -2906 -1340 -157 -160 -240 -254
-361 -410 -479 -620 -791 -1372 -893 -2153 -74 -576 -39 -1157 105 -1711 380
-1467 1476 -2647 2910 -3135 923 -314 1957 -316 2872 -7 1222 414 2204 1321
2711 2502 263 614 391 1329 354 1982 -19 345 -58 603 -137 908 -226 873 -704
1649 -1390 2255 -604 533 -1354 898 -2146 1044 -327 60 -806 88 -1119 65z
m666 -424 c688 -66 1295 -278 1869 -653 626 -409 1150 -1014 1467 -1697 187
-402 303 -820 360 -1300 17 -148 17 -694 0 -835 -19 -151 -69 -441 -93 -534
-157 -626 -450 -1200 -857 -1678 -41 -49 -75 -88 -77 -88 -1 0 -45 29 -98 64
-190 127 -333 178 -818 286 -392 88 -581 144 -726 217 l-93 46 0 223 0 223 91
143 c157 245 240 420 279 587 11 45 25 67 86 133 98 107 184 235 249 371 84
175 125 352 125 543 0 115 -9 149 -74 292 -65 139 -72 190 -53 379 16 163 8
298 -28 493 -154 820 -735 1417 -1541 1585 -109 23 -141 25 -390 25 -227 0
-288 -3 -382 -20 -425 -77 -830 -309 -1113 -639 -117 -137 -197 -258 -274
-416 -79 -161 -108 -238 -145 -386 -51 -201 -62 -296 -61 -503 1 -103 3 -191
5 -195 3 -4 1 -50 -4 -103 -7 -80 -15 -112 -50 -194 -60 -139 -70 -183 -70
-310 0 -135 18 -243 65 -391 65 -205 99 -266 243 -438 125 -149 159 -211 253
-464 74 -198 148 -345 213 -423 l56 -67 0 -231 0 -230 -42 -21 c-146 -75 -362
-137 -804 -233 -188 -41 -391 -91 -450 -111 -154 -51 -294 -123 -398 -201
l-89 -68 -50 55 c-448 497 -801 1191 -936 1840 -73 354 -96 602 -88 953 9 399
59 717 173 1096 128 427 367 897 636 1254 168 221 448 517 653 687 659 549
1473 879 2325 942 135 10 513 5 656 -8z m84 -1560 c271 -61 488 -181 690 -384
64 -64 145 -158 180 -209 168 -239 283 -549 320 -857 22 -180 10 -496 -24
-662 -15 -70 -19 -65 59 -78 81 -14 78 -4 72 -208 -6 -215 -24 -304 -92 -444
-53 -108 -133 -200 -213 -246 -30 -16 -55 -35 -57 -41 -40 -140 -119 -364
-161 -457 -268 -585 -688 -899 -1204 -899 -459 0 -850 281 -1119 804 -65 126
-137 315 -176 462 l-27 100 -56 29 c-175 92 -277 290 -311 607 -6 54 -11 131
-11 172 0 68 2 76 25 94 14 11 48 25 75 32 39 9 50 16 46 29 -15 53 -30 274
-29 451 1 384 63 668 208 948 213 411 589 675 1075 757 135 23 142 23 405 20
189 -2 268 -7 325 -20z m499 -4715 c43 -111 135 -201 281 -275 88 -44 293
-110 471 -150 290 -67 597 -147 729 -191 130 -43 340 -139 340 -155 0 -10
-123 -120 -231 -207 -216 -173 -453 -325 -715 -458 -1024 -518 -2222 -575
-3294 -157 -414 161 -794 388 -1153 688 -117 98 -118 99 -97 115 52 39 225
122 345 165 138 50 531 153 780 206 192 40 400 108 494 162 162 92 251 232
251 393 0 29 3 34 24 34 39 0 74 -17 186 -90 202 -131 380 -180 659 -180 179
0 299 19 452 70 163 54 308 132 409 218 l35 30 7 -82 c3 -44 16 -106 27 -136z"/>
</g>
</svg>
